<svg xmlns="http://www.w3.org/2000/svg" xmlns:xlink="http://www.w3.org/1999/xlink" contentStyleType="text/css" data-diagram-type="DESCRIPTION" height="524px" preserveAspectRatio="none" style="width:3145px;height:524px;background:#F9F9F9;" version="1.1" viewBox="0 0 3145 524" width="3145px" zoomAndPan="magnify"><defs/><g><rect fill="#F9F9F9" height="524" style="stroke:none;stroke-width:1;" width="3145" x="0" y="0"/><!--cluster Grades Checker API--><g class="cluster" data-entity="Grades Checker API" data-source-line="13" data-uid="ent0002" id="cluster_Grades Checker API"><path d="M8.5,6 L164.9902,6 A3.75,3.75 0 0 1 167.4902,8.5 L174.4902,28.2969 L1627.5,28.2969 A2.5,2.5 0 0 1 1630,30.7969 L1630,515.37 A2.5,2.5 0 0 1 1627.5,517.87 L8.5,517.87 A2.5,2.5 0 0 1 6,515.37 L6,8.5 A2.5,2.5 0 0 1 8.5,6" fill="none" style="stroke:#000000;stroke-width:1.5;"/><line style="stroke:#000000;stroke-width:1.5;" x1="6" x2="174.4902" y1="28.2969" y2="28.2969"/><text fill="#000000" font-family="sans-serif" font-size="14" font-weight="bold" lengthAdjust="spacing" textLength="155.4902" x="10" y="20.9951">Grades Checker API</text></g><!--cluster Express Server--><g class="cluster" data-entity="Express Server" data-source-line="15" data-uid="ent0003" id="cluster_Express Server"><path d="M32.5,49 L152.0625,49 A3.75,3.75 0 0 1 154.5625,51.5 L161.5625,71.2969 L432.5,71.2969 A2.5,2.5 0 0 1 435,73.7969 L435,244.43 A2.5,2.5 0 0 1 432.5,246.93 L32.5,246.93 A2.5,2.5 0 0 1 30,244.43 L30,51.5 A2.5,2.5 0 0 1 32.5,49" fill="none" style="stroke:#000000;stroke-width:1.5;"/><line style="stroke:#000000;stroke-width:1.5;" x1="30" x2="161.5625" y1="71.2969" y2="71.2969"/><text fill="#000000" font-family="sans-serif" font-size="14" font-weight="bold" lengthAdjust="spacing" textLength="118.5625" x="34" y="63.9951">Express Server</text></g><!--cluster Helpers--><g class="cluster" data-entity="Helpers" data-source-line="21" data-uid="ent0007" id="cluster_Helpers"><path d="M461.5,49 L523.2646,49 A3.75,3.75 0 0 1 525.7646,51.5 L532.7646,71.2969 L1122.5,71.2969 A2.5,2.5 0 0 1 1125,73.7969 L1125,378.4 A2.5,2.5 0 0 1 1122.5,380.9 L461.5,380.9 A2.5,2.5 0 0 1 459,378.4 L459,51.5 A2.5,2.5 0 0 1 461.5,49" fill="none" style="stroke:#000000;stroke-width:1.5;"/><line style="stroke:#000000;stroke-width:1.5;" x1="459" x2="532.7646" y1="71.2969" y2="71.2969"/><text fill="#000000" font-family="sans-serif" font-size="14" font-weight="bold" lengthAdjust="spacing" textLength="60.7646" x="463" y="63.9951">Helpers</text></g><!--cluster Database--><g class="cluster" data-entity="Database" data-source-line="32" data-uid="ent0016" id="cluster_Database"><path d="M60.5,295.93 L136.0049,295.93 A3.75,3.75 0 0 1 138.5049,298.43 L145.5049,318.2269 L432.5,318.2269 A2.5,2.5 0 0 1 435,320.7269 L435,491.37 A2.5,2.5 0 0 1 432.5,493.87 L60.5,493.87 A2.5,2.5 0 0 1 58,491.37 L58,298.43 A2.5,2.5 0 0 1 60.5,295.93" fill="none" style="stroke:#000000;stroke-width:1.5;"/><line style="stroke:#000000;stroke-width:1.5;" x1="58" x2="145.5049" y1="318.2269" y2="318.2269"/><text fill="#000000" font-family="sans-serif" font-size="14" font-weight="bold" lengthAdjust="spacing" textLength="74.5049" x="62" y="310.9251">Database</text></g><!--cluster External Services--><g class="cluster" data-entity="External Services" data-source-line="38" data-uid="ent0020" id="cluster_External Services"><path d="M1151.5,49 L1289.8066,49 A3.75,3.75 0 0 1 1292.3066,51.5 L1299.3066,71.2969 L1603.5,71.2969 A2.5,2.5 0 0 1 1606,73.7969 L1606,131.46 A2.5,2.5 0 0 1 1603.5,133.96 L1151.5,133.96 A2.5,2.5 0 0 1 1149,131.46 L1149,51.5 A2.5,2.5 0 0 1 1151.5,49" fill="none" style="stroke:#000000;stroke-width:1.5;"/><line style="stroke:#000000;stroke-width:1.5;" x1="1149" x2="1299.3066" y1="71.2969" y2="71.2969"/><text fill="#000000" font-family="sans-serif" font-size="14" font-weight="bold" lengthAdjust="spacing" textLength="137.3066" x="1153" y="63.9951">External Services</text></g><!--entity server.js <<Entry Point>>--><g class="entity" data-entity="server.js &lt;&lt;Entry Point&gt;&gt;" data-source-line="16" data-uid="ent0004" id="entity_server.js &lt;&lt;Entry Point&gt;&gt;"><rect fill="#DFF0D8" height="33.9688" rx="2.5" ry="2.5" style="stroke:#2C3E50;stroke-width:0.5;" width="155.8496" x="46.08" y="84"/><text fill="#2C3E50" font-family="sans-serif" font-size="12" lengthAdjust="spacing" textLength="135.8496" x="56.08" y="105.1387">server.js &#171;Entry Point&#187;</text></g><!--entity Rate Limiter <<Middleware>>--><g class="entity" data-entity="Rate Limiter &lt;&lt;Middleware&gt;&gt;" data-source-line="17" data-uid="ent0005" id="entity_Rate Limiter &lt;&lt;Middleware&gt;&gt;"><rect fill="#D9EDF7" height="33.9688" rx="2.5" ry="2.5" style="stroke:#2C3E50;stroke-width:0.5;" width="181.2793" x="237.36" y="84"/><text fill="#2C3E50" font-family="sans-serif" font-size="12" lengthAdjust="spacing" textLength="161.2793" x="247.36" y="105.1387">Rate Limiter &#171;Middleware&#187;</text></g><!--entity Validate Fields <<Middleware>>--><g class="entity" data-entity="Validate Fields &lt;&lt;Middleware&gt;&gt;" data-source-line="18" data-uid="ent0006" id="entity_Validate Fields &lt;&lt;Middleware&gt;&gt;"><rect fill="#D9EDF7" height="33.9688" rx="2.5" ry="2.5" style="stroke:#2C3E50;stroke-width:0.5;" width="195.5469" x="46.23" y="196.96"/><text fill="#2C3E50" font-family="sans-serif" font-size="12" lengthAdjust="spacing" textLength="175.5469" x="56.23" y="218.0987">Validate Fields &#171;Middleware&#187;</text></g><!--entity checkForGrades.js <<Logic>>--><g class="entity" data-entity="checkForGrades.js &lt;&lt;Logic&gt;&gt;" data-source-line="22" data-uid="ent0008" id="entity_checkForGrades.js &lt;&lt;Logic&gt;&gt;"><rect fill="#FCF8E3" height="33.9688" rx="2.5" ry="2.5" style="stroke:#2C3E50;stroke-width:0.5;" width="180.623" x="474.69" y="84"/><text fill="#2C3E50" font-family="sans-serif" font-size="12" lengthAdjust="spacing" textLength="160.623" x="484.69" y="105.1387">checkForGrades.js &#171;Logic&#187;</text></g><!--entity extractGradesData.js <<Logic>>--><g class="entity" data-entity="extractGradesData.js &lt;&lt;Logic&gt;&gt;" data-source-line="23" data-uid="ent0009" id="entity_extractGradesData.js &lt;&lt;Logic&gt;&gt;"><rect fill="#FCF8E3" height="33.9688" rx="2.5" ry="2.5" style="stroke:#2C3E50;stroke-width:0.5;" width="197.7441" x="690.13" y="84"/><text fill="#2C3E50" font-family="sans-serif" font-size="12" lengthAdjust="spacing" textLength="177.7441" x="700.13" y="105.1387">extractGradesData.js &#171;Logic&#187;</text></g><!--entity requestsHandler.js <<Utility>>--><g class="entity" data-entity="requestsHandler.js &lt;&lt;Utility&gt;&gt;" data-source-line="24" data-uid="ent0010" id="entity_requestsHandler.js &lt;&lt;Utility&gt;&gt;"><rect fill="#F5F5F5" height="33.9688" rx="2.5" ry="2.5" style="stroke:#2C3E50;stroke-width:0.5;" width="186.5762" x="922.71" y="84"/><text fill="#2C3E50" font-family="sans-serif" font-size="12" lengthAdjust="spacing" textLength="166.5762" x="932.71" y="105.1387">requestsHandler.js &#171;Utility&#187;</text></g><!--entity htmlProcessor.js <<Utility>>--><g class="entity" data-entity="htmlProcessor.js &lt;&lt;Utility&gt;&gt;" data-source-line="25" data-uid="ent0011" id="entity_htmlProcessor.js &lt;&lt;Utility&gt;&gt;"><rect fill="#F5F5F5" height="33.9688" rx="2.5" ry="2.5" style="stroke:#2C3E50;stroke-width:0.5;" width="172.8008" x="480.6" y="196.96"/><text fill="#2C3E50" font-family="sans-serif" font-size="12" lengthAdjust="spacing" textLength="152.8008" x="490.6" y="218.0987">htmlProcessor.js &#171;Utility&#187;</text></g><!--entity validators.js <<Utility>>--><g class="entity" data-entity="validators.js &lt;&lt;Utility&gt;&gt;" data-source-line="26" data-uid="ent0012" id="entity_validators.js &lt;&lt;Utility&gt;&gt;"><rect fill="#F5F5F5" height="33.9688" rx="2.5" ry="2.5" style="stroke:#2C3E50;stroke-width:0.5;" width="146.5215" x="688.74" y="196.96"/><text fill="#2C3E50" font-family="sans-serif" font-size="12" lengthAdjust="spacing" textLength="126.5215" x="698.74" y="218.0987">validators.js &#171;Utility&#187;</text></g><!--entity messageSenderService.js <<Service>>--><g class="entity" data-entity="messageSenderService.js &lt;&lt;Service&gt;&gt;" data-source-line="27" data-uid="ent0013" id="entity_messageSenderService.js &lt;&lt;Service&gt;&gt;"><rect fill="#F2DEDE" height="33.9688" rx="2.5" ry="2.5" style="stroke:#2C3E50;stroke-width:0.5;" width="237.0664" x="870.47" y="196.96"/><text fill="#2C3E50" font-family="sans-serif" font-size="12" lengthAdjust="spacing" textLength="217.0664" x="880.47" y="218.0987">messageSenderService.js &#171;Service&#187;</text></g><!--entity userSessionsHandler.js <<Database Handler>>--><g class="entity" data-entity="userSessionsHandler.js &lt;&lt;Database Handler&gt;&gt;" data-source-line="28" data-uid="ent0014" id="entity_userSessionsHandler.js &lt;&lt;Database Handler&gt;&gt;"><rect fill="#EEEEEE" height="33.9688" rx="2.5" ry="2.5" style="stroke:#2C3E50;stroke-width:0.5;" width="285.6816" x="475.16" y="330.93"/><text fill="#2C3E50" font-family="sans-serif" font-size="12" lengthAdjust="spacing" textLength="265.6816" x="485.16" y="352.0687">userSessionsHandler.js &#171;Database Handler&#187;</text></g><!--entity userListHandler.js <<Database Handler>>--><g class="entity" data-entity="userListHandler.js &lt;&lt;Database Handler&gt;&gt;" data-source-line="29" data-uid="ent0015" id="entity_userListHandler.js &lt;&lt;Database Handler&gt;&gt;"><rect fill="#EEEEEE" height="33.9688" rx="2.5" ry="2.5" style="stroke:#2C3E50;stroke-width:0.5;" width="254.6211" x="795.69" y="330.93"/><text fill="#2C3E50" font-family="sans-serif" font-size="12" lengthAdjust="spacing" textLength="234.6211" x="805.69" y="352.0687">userListHandler.js &#171;Database Handler&#187;</text></g><!--entity MongoDB <<NoSQL>>--><g class="entity" data-entity="MongoDB &lt;&lt;NoSQL&gt;&gt;" data-source-line="33" data-uid="ent0017" id="entity_MongoDB &lt;&lt;NoSQL&gt;&gt;"><rect fill="#E0F7FA" height="33.9688" rx="2.5" ry="2.5" style="stroke:#2C3E50;stroke-width:0.5;" width="136.2969" x="73.85" y="330.93"/><text fill="#2C3E50" font-family="sans-serif" font-size="12" lengthAdjust="spacing" textLength="116.2969" x="83.85" y="352.0687">MongoDB &#171;NoSQL&#187;</text></g><!--entity userSchema.js <<Schema>>--><g class="entity" data-entity="userSchema.js &lt;&lt;Schema&gt;&gt;" data-source-line="34" data-uid="ent0018" id="entity_userSchema.js &lt;&lt;Schema&gt;&gt;"><rect fill="#E1F5FE" height="33.9688" rx="2.5" ry="2.5" style="stroke:#2C3E50;stroke-width:0.5;" width="174.5645" x="244.72" y="330.93"/><text fill="#2C3E50" font-family="sans-serif" font-size="12" lengthAdjust="spacing" textLength="154.5645" x="254.72" y="352.0687">userSchema.js &#171;Schema&#187;</text></g><!--entity userSessionSchema.js <<Schema>>--><g class="entity" data-entity="userSessionSchema.js &lt;&lt;Schema&gt;&gt;" data-source-line="35" data-uid="ent0019" id="entity_userSessionSchema.js &lt;&lt;Schema&gt;&gt;"><rect fill="#E1F5FE" height="33.9688" rx="2.5" ry="2.5" style="stroke:#2C3E50;stroke-width:0.5;" width="220.3496" x="73.83" y="443.9"/><text fill="#2C3E50" font-family="sans-serif" font-size="12" lengthAdjust="spacing" textLength="200.3496" x="83.83" y="465.0387">userSessionSchema.js &#171;Schema&#187;</text></g><!--entity Twilio API <<SMS/WhatsApp>>--><g class="entity" data-entity="Twilio API &lt;&lt;SMS/WhatsApp&gt;&gt;" data-source-line="39" data-uid="ent0021" id="entity_Twilio API &lt;&lt;SMS/WhatsApp&gt;&gt;"><rect fill="#FFE0B2" height="33.9688" rx="2.5" ry="2.5" style="stroke:#2C3E50;stroke-width:0.5;" width="186.6406" x="1164.68" y="84"/><text fill="#2C3E50" font-family="sans-serif" font-size="12" lengthAdjust="spacing" textLength="166.6406" x="1174.68" y="105.1387">Twilio API &#171;SMS/WhatsApp&#187;</text></g><!--entity Student Portal <<HTML Source>>--><g class="entity" data-entity="Student Portal &lt;&lt;HTML Source&gt;&gt;" data-source-line="40" data-uid="ent0022" id="entity_Student Portal &lt;&lt;HTML Source&gt;&gt;"><rect fill="#FFF3E0" height="33.9688" rx="2.5" ry="2.5" style="stroke:#2C3E50;stroke-width:0.5;" width="203.1406" x="1386.43" y="84"/><text fill="#2C3E50" font-family="sans-serif" font-size="12" lengthAdjust="spacing" textLength="183.1406" x="1396.43" y="105.1387">Student Portal &#171;HTML Source&#187;</text></g><!--entity server.js--><g class="entity" data-entity="server.js" data-source-line="45" data-uid="ent0023" id="entity_server.js"><rect fill="#FFFFFF" height="33.9688" rx="2.5" ry="2.5" style="stroke:#2C3E50;stroke-width:0.5;" width="71.3867" x="2006.31" y="84"/><text fill="#2C3E50" font-family="sans-serif" font-size="12" lengthAdjust="spacing" textLength="51.3867" x="2016.31" y="105.1387">server.js</text></g><!--entity Rate Limiter--><g class="entity" data-entity="Rate Limiter" data-source-line="45" data-uid="ent0024" id="entity_Rate Limiter"><rect fill="#FFFFFF" height="33.9688" rx="2.5" ry="2.5" style="stroke:#2C3E50;stroke-width:0.5;" width="93.6582" x="1859.17" y="196.96"/><text fill="#2C3E50" font-family="sans-serif" font-size="12" lengthAdjust="spacing" textLength="73.6582" x="1869.17" y="218.0987">Rate Limiter</text></g><!--entity Validate Fields--><g class="entity" data-entity="Validate Fields" data-source-line="46" data-uid="ent0026" id="entity_Validate Fields"><rect fill="#FFFFFF" height="33.9688" rx="2.5" ry="2.5" style="stroke:#2C3E50;stroke-width:0.5;" width="107.9258" x="1988.04" y="196.96"/><text fill="#2C3E50" font-family="sans-serif" font-size="12" lengthAdjust="spacing" textLength="87.9258" x="1998.04" y="218.0987">Validate Fields</text></g><!--entity checkForGrades.js--><g class="entity" data-entity="checkForGrades.js" data-source-line="47" data-uid="ent0028" id="entity_checkForGrades.js"><rect fill="#FFFFFF" height="33.9688" rx="2.5" ry="2.5" style="stroke:#2C3E50;stroke-width:0.5;" width="130.5488" x="2130.73" y="196.96"/><text fill="#2C3E50" font-family="sans-serif" font-size="12" lengthAdjust="spacing" textLength="110.5488" x="2140.73" y="218.0987">checkForGrades.js</text></g><!--entity requestsHandler.js--><g class="entity" data-entity="requestsHandler.js" data-source-line="49" data-uid="ent0030" id="entity_requestsHandler.js"><rect fill="#FFFFFF" height="33.9688" rx="2.5" ry="2.5" style="stroke:#2C3E50;stroke-width:0.5;" width="132.7813" x="1645.61" y="330.93"/><text fill="#2C3E50" font-family="sans-serif" font-size="12" lengthAdjust="spacing" textLength="112.7813" x="1655.61" y="352.0687">requestsHandler.js</text></g><!--entity htmlProcessor.js--><g class="entity" data-entity="htmlProcessor.js" data-source-line="50" data-uid="ent0032" id="entity_htmlProcessor.js"><rect fill="#FFFFFF" height="33.9688" rx="2.5" ry="2.5" style="stroke:#2C3E50;stroke-width:0.5;" width="119.0059" x="1813.5" y="330.93"/><text fill="#2C3E50" font-family="sans-serif" font-size="12" lengthAdjust="spacing" textLength="99.0059" x="1823.5" y="352.0687">htmlProcessor.js</text></g><!--entity extractGradesData.js--><g class="entity" data-entity="extractGradesData.js" data-source-line="51" data-uid="ent0034" id="entity_extractGradesData.js"><rect fill="#FFFFFF" height="33.9688" rx="2.5" ry="2.5" style="stroke:#2C3E50;stroke-width:0.5;" width="147.6699" x="1967.17" y="330.93"/><text fill="#2C3E50" font-family="sans-serif" font-size="12" lengthAdjust="spacing" textLength="127.6699" x="1977.17" y="352.0687">extractGradesData.js</text></g><!--entity validators.js--><g class="entity" data-entity="validators.js" data-source-line="52" data-uid="ent0036" id="entity_validators.js"><rect fill="#FFFFFF" height="33.9688" rx="2.5" ry="2.5" style="stroke:#2C3E50;stroke-width:0.5;" width="92.7266" x="2149.64" y="330.93"/><text fill="#2C3E50" font-family="sans-serif" font-size="12" lengthAdjust="spacing" textLength="72.7266" x="2159.64" y="352.0687">validators.js</text></g><!--entity messageSenderService.js--><g class="entity" data-entity="messageSenderService.js" data-source-line="53" data-uid="ent0038" id="entity_messageSenderService.js"><rect fill="#FFFFFF" height="33.9688" rx="2.5" ry="2.5" style="stroke:#2C3E50;stroke-width:0.5;" width="174.2188" x="2276.89" y="330.93"/><text fill="#2C3E50" font-family="sans-serif" font-size="12" lengthAdjust="spacing" textLength="154.2188" x="2286.89" y="352.0687">messageSenderService.js</text></g><!--entity userSessionsHandler.js--><g class="entity" data-entity="userSessionsHandler.js" data-source-line="54" data-uid="ent0040" id="entity_userSessionsHandler.js"><rect fill="#FFFFFF" height="33.9688" rx="2.5" ry="2.5" style="stroke:#2C3E50;stroke-width:0.5;" width="158.8613" x="2486.57" y="330.93"/><text fill="#2C3E50" font-family="sans-serif" font-size="12" lengthAdjust="spacing" textLength="138.8613" x="2496.57" y="352.0687">userSessionsHandler.js</text></g><!--entity userListHandler.js--><g class="entity" data-entity="userListHandler.js" data-source-line="55" data-uid="ent0042" id="entity_userListHandler.js"><rect fill="#FFFFFF" height="33.9688" rx="2.5" ry="2.5" style="stroke:#2C3E50;stroke-width:0.5;" width="127.8008" x="2680.1" y="330.93"/><text fill="#2C3E50" font-family="sans-serif" font-size="12" lengthAdjust="spacing" textLength="107.8008" x="2690.1" y="352.0687">userListHandler.js</text></g><!--entity Student Portal--><g class="entity" data-entity="Student Portal" data-source-line="57" data-uid="ent0044" id="entity_Student Portal"><rect fill="#FFFFFF" height="33.9688" rx="2.5" ry="2.5" style="stroke:#2C3E50;stroke-width:0.5;" width="105.957" x="1659.02" y="443.9"/><text fill="#2C3E50" font-family="sans-serif" font-size="12" lengthAdjust="spacing" textLength="85.957" x="1669.02" y="465.0387">Student Portal</text></g><!--entity cheerio--><g class="entity" data-entity="cheerio" data-source-line="58" data-uid="ent0046" id="entity_cheerio"><rect fill="#FFFFFF" height="33.9688" rx="2.5" ry="2.5" style="stroke:#2C3E50;stroke-width:0.5;" width="64.5781" x="1840.71" y="443.9"/><text fill="#2C3E50" font-family="sans-serif" font-size="12" lengthAdjust="spacing" textLength="44.5781" x="1850.71" y="465.0387">cheerio</text></g><!--entity Twilio API--><g class="entity" data-entity="Twilio API" data-source-line="59" data-uid="ent0048" id="entity_Twilio API"><rect fill="#FFFFFF" height="33.9688" rx="2.5" ry="2.5" style="stroke:#2C3E50;stroke-width:0.5;" width="77.2871" x="2325.36" y="443.9"/><text fill="#2C3E50" font-family="sans-serif" font-size="12" lengthAdjust="spacing" textLength="57.2871" x="2335.36" y="465.0387">Twilio API</text></g><!--entity MongoDB--><g class="entity" data-entity="MongoDB" data-source-line="61" data-uid="ent0050" id="entity_MongoDB"><rect fill="#FFFFFF" height="33.9688" rx="2.5" ry="2.5" style="stroke:#2C3E50;stroke-width:0.5;" width="77.7324" x="2790.13" y="443.9"/><text fill="#2C3E50" font-family="sans-serif" font-size="12" lengthAdjust="spacing" textLength="57.7324" x="2800.13" y="465.0387">MongoDB</text></g><!--entity userSchema.js--><g class="entity" data-entity="userSchema.js" data-source-line="63" data-uid="ent0053" id="entity_userSchema.js"><rect fill="#FFFFFF" height="33.9688" rx="2.5" ry="2.5" style="stroke:#2C3E50;stroke-width:0.5;" width="107.8203" x="2843.09" y="330.93"/><text fill="#2C3E50" font-family="sans-serif" font-size="12" lengthAdjust="spacing" textLength="87.8203" x="2853.09" y="352.0687">userSchema.js</text></g><!--entity userSessionSchema.js--><g class="entity" data-entity="userSessionSchema.js" data-source-line="64" data-uid="ent0055" id="entity_userSessionSchema.js"><rect fill="#FFFFFF" height="33.9688" rx="2.5" ry="2.5" style="stroke:#2C3E50;stroke-width:0.5;" width="153.6055" x="2986.2" y="330.93"/><text fill="#2C3E50" font-family="sans-serif" font-size="12" lengthAdjust="spacing" textLength="133.6055" x="2996.2" y="352.0687">userSessionSchema.js</text></g><!--link server.js to Rate Limiter--><g class="link" data-entity-1="server.js" data-entity-2="Rate Limiter" data-source-line="45" data-uid="lnk25" id="link_server.js_Rate Limiter"><path d="M2007.07,118.29 C1991.23,126.58 1972.77,137.52 1958,149.96 C1941.73,163.66 1930.1476,178.0406 1920.4676,191.6506" fill="none" id="server.js-to-Rate Limiter" style="stroke:#181818;stroke-width:1;"/><polygon fill="#181818" points="1916.99,196.54,1925.466,191.5242,1919.888,192.4655,1918.9467,186.8875,1916.99,196.54" style="stroke:#181818;stroke-width:1;"/><text fill="#000000" font-family="sans-serif" font-size="13" lengthAdjust="spacing" textLength="74.8833" x="1959" y="163.0269">Middleware</text></g><!--link server.js to Validate Fields--><g class="link" data-entity-1="server.js" data-entity-2="Validate Fields" data-source-line="46" data-uid="lnk27" id="link_server.js_Validate Fields"><path d="M2042,118.35 C2042,139.33 2042,169.49 2042,190.51" fill="none" id="server.js-to-Validate Fields" style="stroke:#181818;stroke-width:1;"/><polygon fill="#181818" points="2042,196.51,2046,187.51,2042,191.51,2038,187.51,2042,196.51" style="stroke:#181818;stroke-width:1;"/><text fill="#000000" font-family="sans-serif" font-size="13" lengthAdjust="spacing" textLength="74.8833" x="2043" y="163.0269">Middleware</text></g><!--link server.js to checkForGrades.js--><g class="link" data-entity-1="server.js" data-entity-2="checkForGrades.js" data-source-line="47" data-uid="lnk29" id="link_server.js_checkForGrades.js"><path d="M2074.51,118.44 C2090.51,127.06 2109.8,138.26 2126,149.96 C2145.74,164.23 2161.9337,179.0315 2175.5937,192.4115" fill="none" id="server.js-to-checkForGrades.js" style="stroke:#181818;stroke-width:1;"/><polygon fill="#181818" points="2179.88,196.61,2176.2495,187.4547,2176.308,193.1113,2170.6515,193.1698,2179.88,196.61" style="stroke:#181818;stroke-width:1;"/><text fill="#000000" font-family="sans-serif" font-size="13" lengthAdjust="spacing" textLength="31.04" x="2148" y="163.0269">Calls</text></g><!--link checkForGrades.js to requestsHandler.js--><g class="link" data-entity-1="checkForGrades.js" data-entity-2="requestsHandler.js" data-source-line="49" data-uid="lnk31" id="link_checkForGrades.js_requestsHandler.js"><path d="M2169.41,231.27 C2153.63,240.04 2132.88,250.04 2113,254.93 C2061.61,267.58 1927.16,253.98 1875,262.93 C1838.7,269.16 1829.01,271.6 1796,287.93 C1772.36,299.63 1752.6772,313.7769 1736.3072,326.7869" fill="none" id="checkForGrades.js-to-requestsHandler.js" style="stroke:#181818;stroke-width:1;"/><polygon fill="#181818" points="1731.61,330.52,1741.1446,328.0518,1735.5244,327.4091,1736.1671,321.7889,1731.61,330.52" style="stroke:#181818;stroke-width:1;"/><text fill="#000000" font-family="sans-serif" font-size="13" lengthAdjust="spacing" textLength="76.2671" x="1876" y="275.9969">Fetch HTML</text></g><!--link checkForGrades.js to htmlProcessor.js--><g class="link" data-entity-1="checkForGrades.js" data-entity-2="htmlProcessor.js" data-source-line="50" data-uid="lnk33" id="link_checkForGrades.js_htmlProcessor.js"><path d="M2168.98,231.25 C2153.23,239.89 2132.65,249.78 2113,254.93 C2059.58,268.95 2041.47,245.71 1989,262.93 C1969.44,269.36 1966.85,276.11 1950,287.93 C1930.29,301.76 1913.2767,314.8289 1897.9467,326.9489" fill="none" id="checkForGrades.js-to-htmlProcessor.js" style="stroke:#181818;stroke-width:1;"/><polygon fill="#181818" points="1893.24,330.67,1902.7808,328.2261,1897.1623,327.569,1897.8193,321.9505,1893.24,330.67" style="stroke:#181818;stroke-width:1;"/><text fill="#000000" font-family="sans-serif" font-size="13" lengthAdjust="spacing" textLength="76.229" x="1990" y="275.9969">Parse HTML</text></g><!--link checkForGrades.js to extractGradesData.js--><g class="link" data-entity-1="checkForGrades.js" data-entity-2="extractGradesData.js" data-source-line="51" data-uid="lnk35" id="link_checkForGrades.js_extractGradesData.js"><path d="M2164.5,231.29 C2149.17,238.94 2130.34,247.9 2113,254.93 C2102.58,259.16 2097.7,255.8 2089,262.93 C2067.05,280.93 2055.2196,306.1246 2048.3196,325.0046" fill="none" id="checkForGrades.js-to-extractGradesData.js" style="stroke:#181818;stroke-width:1;"/><polygon fill="#181818" points="2046.26,330.64,2053.1063,323.5599,2047.9763,325.9438,2045.5924,320.8138,2046.26,330.64" style="stroke:#181818;stroke-width:1;"/><text fill="#000000" font-family="sans-serif" font-size="13" lengthAdjust="spacing" textLength="97.1001" x="2090" y="275.9969">Extract Grades</text></g><!--link checkForGrades.js to validators.js--><g class="link" data-entity-1="checkForGrades.js" data-entity-2="validators.js" data-source-line="52" data-uid="lnk37" id="link_checkForGrades.js_validators.js"><path d="M2196,231.4 C2196,256.82 2196,299.38 2196,324.68" fill="none" id="checkForGrades.js-to-validators.js" style="stroke:#181818;stroke-width:1;"/><polygon fill="#181818" points="2196,330.68,2200,321.68,2196,325.68,2192,321.68,2196,330.68" style="stroke:#181818;stroke-width:1;"/><text fill="#000000" font-family="sans-serif" font-size="13" lengthAdjust="spacing" textLength="89.5845" x="2197" y="275.9969">Validate Page</text></g><!--link checkForGrades.js to messageSenderService.js--><g class="link" data-entity-1="checkForGrades.js" data-entity-2="messageSenderService.js" data-source-line="53" data-uid="lnk39" id="link_checkForGrades.js_messageSenderService.js"><path d="M2239.77,231.28 C2257.9,239.24 2278.5,249.93 2295,262.93 C2319.76,282.43 2338.2631,307.2302 2350.4431,325.5902" fill="none" id="checkForGrades.js-to-messageSenderService.js" style="stroke:#181818;stroke-width:1;"/><polygon fill="#181818" points="2353.76,330.59,2352.1179,320.879,2350.9959,326.4235,2345.4515,325.3015,2353.76,330.59" style="stroke:#181818;stroke-width:1;"/><text fill="#000000" font-family="sans-serif" font-size="13" lengthAdjust="spacing" textLength="72.4204" x="2314" y="275.9969">Notify User</text></g><!--link checkForGrades.js to userSessionsHandler.js--><g class="link" data-entity-1="checkForGrades.js" data-entity-2="userSessionsHandler.js" data-source-line="54" data-uid="lnk41" id="link_checkForGrades.js_userSessionsHandler.js"><path d="M2261.65,225.81 C2318.39,236.74 2401.63,256.54 2469,287.93 C2495.26,300.17 2518.3617,314.4658 2537.5117,327.2658" fill="none" id="checkForGrades.js-to-userSessionsHandler.js" style="stroke:#181818;stroke-width:1;"/><polygon fill="#181818" points="2542.5,330.6,2537.2404,322.2732,2538.3431,327.8215,2532.7948,328.9242,2542.5,330.6" style="stroke:#181818;stroke-width:1;"/><text fill="#000000" font-family="sans-serif" font-size="13" lengthAdjust="spacing" textLength="133.0405" x="2450" y="275.9969">Read/Write Sessions</text></g><!--link checkForGrades.js to userListHandler.js--><g class="link" data-entity-1="checkForGrades.js" data-entity-2="userListHandler.js" data-source-line="55" data-uid="lnk43" id="link_checkForGrades.js_userListHandler.js"><path d="M2261.58,218.51 C2340.75,223.81 2477.53,236.18 2592,262.93 C2624.58,270.55 2633.39,272.37 2663,287.93 C2685.79,299.91 2704.659,313.9472 2720.439,326.8772" fill="none" id="checkForGrades.js-to-userListHandler.js" style="stroke:#181818;stroke-width:1;"/><polygon fill="#181818" points="2725.08,330.68,2720.6537,321.8818,2721.2125,327.511,2715.5833,328.0698,2725.08,330.68" style="stroke:#181818;stroke-width:1;"/><text fill="#000000" font-family="sans-serif" font-size="13" lengthAdjust="spacing" textLength="92.1743" x="2647" y="275.9969">Manage Users</text></g><!--link requestsHandler.js to Student Portal--><g class="link" data-entity-1="requestsHandler.js" data-entity-2="Student Portal" data-source-line="57" data-uid="lnk45" id="link_requestsHandler.js_Student Portal"><path d="M1712,365.29 C1712,386.27 1712,416.43 1712,437.44" fill="none" id="requestsHandler.js-to-Student Portal" style="stroke:#181818;stroke-width:1;"/><polygon fill="#181818" points="1712,443.44,1716,434.44,1712,438.44,1708,434.44,1712,443.44" style="stroke:#181818;stroke-width:1;"/><text fill="#000000" font-family="sans-serif" font-size="13" lengthAdjust="spacing" textLength="76.2671" x="1713" y="409.9669">Fetch HTML</text></g><!--link htmlProcessor.js to cheerio--><g class="link" data-entity-1="htmlProcessor.js" data-entity-2="cheerio" data-source-line="58" data-uid="lnk47" id="link_htmlProcessor.js_cheerio"><path d="M1873,365.29 C1873,386.27 1873,416.43 1873,437.44" fill="none" id="htmlProcessor.js-to-cheerio" style="stroke:#181818;stroke-width:1;"/><polygon fill="#181818" points="1873,443.44,1877,434.44,1873,438.44,1869,434.44,1873,443.44" style="stroke:#181818;stroke-width:1;"/><text fill="#000000" font-family="sans-serif" font-size="13" lengthAdjust="spacing" textLength="76.229" x="1874" y="409.9669">Parse HTML</text></g><!--link messageSenderService.js to Twilio API--><g class="link" data-entity-1="messageSenderService.js" data-entity-2="Twilio API" data-source-line="59" data-uid="lnk49" id="link_messageSenderService.js_Twilio API"><path d="M2364,365.29 C2364,386.27 2364,416.43 2364,437.44" fill="none" id="messageSenderService.js-to-Twilio API" style="stroke:#181818;stroke-width:1;"/><polygon fill="#181818" points="2364,443.44,2368,434.44,2364,438.44,2360,434.44,2364,443.44" style="stroke:#181818;stroke-width:1;"/><text fill="#000000" font-family="sans-serif" font-size="13" lengthAdjust="spacing" textLength="118.2378" x="2365" y="409.9669">Send Notifications</text></g><!--link userSessionsHandler.js to MongoDB--><g class="link" data-entity-1="userSessionsHandler.js" data-entity-2="MongoDB" data-source-line="61" data-uid="lnk51" id="link_userSessionsHandler.js_MongoDB"><path d="M2571.42,365.2 C2577.29,380.22 2588.14,401.96 2605,413.9 C2634.24,434.61 2727.642,448.2712 2783.712,454.9412" fill="none" id="userSessionsHandler.js-to-MongoDB" style="stroke:#181818;stroke-width:1;"/><polygon fill="#181818" points="2789.67,455.65,2781.2055,450.6149,2784.705,455.0594,2780.2605,458.5589,2789.67,455.65" style="stroke:#181818;stroke-width:1;"/><text fill="#000000" font-family="sans-serif" font-size="13" lengthAdjust="spacing" textLength="133.0405" x="2606" y="409.9669">Read/Write Sessions</text></g><!--link userListHandler.js to MongoDB--><g class="link" data-entity-1="userListHandler.js" data-entity-2="MongoDB" data-source-line="62" data-uid="lnk52" id="link_userListHandler.js_MongoDB"><path d="M2743.49,365.23 C2743.82,379.26 2746.22,399.47 2756,413.9 C2764.49,426.42 2772.4225,433.2572 2785.2425,440.5372" fill="none" id="userListHandler.js-to-MongoDB" style="stroke:#181818;stroke-width:1;"/><polygon fill="#181818" points="2790.46,443.5,2784.609,435.5775,2786.1121,441.031,2780.6586,442.5341,2790.46,443.5" style="stroke:#181818;stroke-width:1;"/><text fill="#000000" font-family="sans-serif" font-size="13" lengthAdjust="spacing" textLength="92.1743" x="2757" y="409.9669">Manage Users</text></g><!--link userSchema.js to MongoDB--><g class="link" data-entity-1="userSchema.js" data-entity-2="MongoDB" data-source-line="63" data-uid="lnk54" id="link_userSchema.js_MongoDB"><path d="M2886.97,365.29 C2874.11,386.27 2855.0859,417.3147 2842.2059,438.3247" fill="none" id="userSchema.js-to-MongoDB" style="stroke:#181818;stroke-width:1;"/><polygon fill="#181818" points="2839.07,443.44,2847.184,437.8577,2841.6832,439.1773,2840.3636,433.6765,2839.07,443.44" style="stroke:#181818;stroke-width:1;"/><text fill="#000000" font-family="sans-serif" font-size="13" lengthAdjust="spacing" textLength="98.833" x="2868" y="409.9669">Define Schema</text></g><!--link userSessionSchema.js to MongoDB--><g class="link" data-entity-1="userSessionSchema.js" data-entity-2="MongoDB" data-source-line="64" data-uid="lnk56" id="link_userSessionSchema.js_MongoDB"><path d="M3044.64,365.33 C3027.62,379.82 3001.07,400.64 2975,413.9 C2940.66,431.37 2904.2037,442.3661 2873.9937,449.8561" fill="none" id="userSessionSchema.js-to-MongoDB" style="stroke:#181818;stroke-width:1;"/><polygon fill="#181818" points="2868.17,451.3,2877.8681,453.0166,2873.0231,450.0968,2875.9429,445.2517,2868.17,451.3" style="stroke:#181818;stroke-width:1;"/><text fill="#000000" font-family="sans-serif" font-size="13" lengthAdjust="spacing" textLength="98.833" x="3004" y="409.9669">Define Schema</text></g><!--SRC=[bPHDJnin48Rl-oiiEFH42K48gA98V0Kg9IXbeHog78mzJbmSUsixGAZot-kF3M4tNb9sBxlsF6FxdNbj7haiiCPJHDIqK1AapUrS0D90B9PZ0Pbv2p4JJDKpbsF4i33lPnumUHnhDPFqJ0cbqJOxzc-MVK6N845ZiSgFZ5_W7RoQ-PiXzvok9GjFd5EQWYx7ssGV3bfXlAUaJO_c_1NGNZjRP1bJmi5ewr9Z2WQTJO0ykl-JuVSjjtGWbY4NBuK6Or0E-WdqLhap_wns-yk4oQ-_3UfqBgJLSpHKNDfkTuIsAMCjUfIYRh05rETJRjr2dSw0KohW6Mk8t35GTfZYVcB1gMTx70Gr7wABwcckG1IWJSCnYDUXftIK9HwdhyQSXAoCi2FOJt7mOZKcDcBdsEB_HpNycO6nvWfBTu9ImZlB1RVpY1xuDuLEx5GCjIAkEkfJu5FKJsdp6Mhgri5Zo44w9NqtS0AHBtyYtwP08SNFZCUCuKfMJ-i5Uy06K3aQya1uclBqkR6Vob5hWsLuGnyCb1ohyrENzrhbF_enMOiTCjnuCDSwqxBiyJj2UqxDJMfiPXTrIph3I7UJbC8tjVFjiwkhygxscGVvxlq4MtDI5B5I35eFxHINsndr7qEbhLkbqxcw7VHHhcPwMMJ6zg5LRctXxxOR4DZwoavuORBLVJ12EplTgjD7w1jQ-NKzjkRkJU5hdlN06HR2P5bgCa3hhlDK3ooP87_OPh9kEiyDiVQTzo6NkY8yUn77KPnevYkUzU2RJ4DdocQkmRK-mxModCtHdLEqcK-xrkCtWEdklNObHSk0ZzDKJHlgYgNRMzY1hrQgAe6kDcIzLEibMJO6QAxg1MeK940hotZE1qMPE8djxNRPf4ZWovkZKP-K3dMmeahrTbaFFWV6fLiXH6J9QsK3z0y0]--></g></svg>