<svg xmlns="http://www.w3.org/2000/svg" xmlns:xlink="http://www.w3.org/1999/xlink" contentStyleType="text/css" data-diagram-type="DESCRIPTION" height="379px" preserveAspectRatio="none" style="width:1507px;height:379px;background:#F9F9F9;" version="1.1" viewBox="0 0 1507 379" width="1507px" zoomAndPan="magnify"><defs/><g><rect fill="#F9F9F9" height="379" style="stroke:none;stroke-width:1;" width="1507" x="0" y="0"/><!--entity server.js--><g class="entity" data-entity="server.js" data-source-line="14" data-uid="ent0002" id="entity_server.js"><rect fill="#FFFFFF" height="33.9688" rx="2.5" ry="2.5" style="stroke:#2C3E50;stroke-width:0.5;" width="71.3867" x="367.7" y="7"/><text fill="#2C3E50" font-family="sans-serif" font-size="12" lengthAdjust="spacing" textLength="51.3867" x="377.7" y="28.1387">server.js</text></g><!--entity Rate Limiter--><g class="entity" data-entity="Rate Limiter" data-source-line="14" data-uid="ent0003" id="entity_Rate Limiter"><rect fill="#FFFFFF" height="33.9688" rx="2.5" ry="2.5" style="stroke:#2C3E50;stroke-width:0.5;" width="93.6582" x="220.56" y="117.96"/><text fill="#2C3E50" font-family="sans-serif" font-size="12" lengthAdjust="spacing" textLength="73.6582" x="230.56" y="139.0987">Rate Limiter</text></g><!--entity Validate Fields--><g class="entity" data-entity="Validate Fields" data-source-line="15" data-uid="ent0005" id="entity_Validate Fields"><rect fill="#FFFFFF" height="33.9688" rx="2.5" ry="2.5" style="stroke:#2C3E50;stroke-width:0.5;" width="107.9258" x="349.43" y="117.96"/><text fill="#2C3E50" font-family="sans-serif" font-size="12" lengthAdjust="spacing" textLength="87.9258" x="359.43" y="139.0987">Validate Fields</text></g><!--entity checkForGrades.js--><g class="entity" data-entity="checkForGrades.js" data-source-line="16" data-uid="ent0007" id="entity_checkForGrades.js"><rect fill="#FFFFFF" height="33.9688" rx="2.5" ry="2.5" style="stroke:#2C3E50;stroke-width:0.5;" width="130.5488" x="492.12" y="117.96"/><text fill="#2C3E50" font-family="sans-serif" font-size="12" lengthAdjust="spacing" textLength="110.5488" x="502.12" y="139.0987">checkForGrades.js</text></g><!--entity requestsHandler.js--><g class="entity" data-entity="requestsHandler.js" data-source-line="18" data-uid="ent0009" id="entity_requestsHandler.js"><rect fill="#FFFFFF" height="33.9688" rx="2.5" ry="2.5" style="stroke:#2C3E50;stroke-width:0.5;" width="132.7813" x="7" y="228.93"/><text fill="#2C3E50" font-family="sans-serif" font-size="12" lengthAdjust="spacing" textLength="112.7813" x="17" y="250.0687">requestsHandler.js</text></g><!--entity htmlProcessor.js--><g class="entity" data-entity="htmlProcessor.js" data-source-line="19" data-uid="ent0011" id="entity_htmlProcessor.js"><rect fill="#FFFFFF" height="33.9688" rx="2.5" ry="2.5" style="stroke:#2C3E50;stroke-width:0.5;" width="119.0059" x="174.89" y="228.93"/><text fill="#2C3E50" font-family="sans-serif" font-size="12" lengthAdjust="spacing" textLength="99.0059" x="184.89" y="250.0687">htmlProcessor.js</text></g><!--entity extractGradesData.js--><g class="entity" data-entity="extractGradesData.js" data-source-line="20" data-uid="ent0013" id="entity_extractGradesData.js"><rect fill="#FFFFFF" height="33.9688" rx="2.5" ry="2.5" style="stroke:#2C3E50;stroke-width:0.5;" width="147.6699" x="328.56" y="228.93"/><text fill="#2C3E50" font-family="sans-serif" font-size="12" lengthAdjust="spacing" textLength="127.6699" x="338.56" y="250.0687">extractGradesData.js</text></g><!--entity validators.js--><g class="entity" data-entity="validators.js" data-source-line="21" data-uid="ent0015" id="entity_validators.js"><rect fill="#FFFFFF" height="33.9688" rx="2.5" ry="2.5" style="stroke:#2C3E50;stroke-width:0.5;" width="92.7266" x="511.03" y="228.93"/><text fill="#2C3E50" font-family="sans-serif" font-size="12" lengthAdjust="spacing" textLength="72.7266" x="521.03" y="250.0687">validators.js</text></g><!--entity messageSenderService.js--><g class="entity" data-entity="messageSenderService.js" data-source-line="22" data-uid="ent0017" id="entity_messageSenderService.js"><rect fill="#FFFFFF" height="33.9688" rx="2.5" ry="2.5" style="stroke:#2C3E50;stroke-width:0.5;" width="174.2188" x="638.28" y="228.93"/><text fill="#2C3E50" font-family="sans-serif" font-size="12" lengthAdjust="spacing" textLength="154.2188" x="648.28" y="250.0687">messageSenderService.js</text></g><!--entity userSessionsHandler.js--><g class="entity" data-entity="userSessionsHandler.js" data-source-line="23" data-uid="ent0019" id="entity_userSessionsHandler.js"><rect fill="#FFFFFF" height="33.9688" rx="2.5" ry="2.5" style="stroke:#2C3E50;stroke-width:0.5;" width="158.8613" x="847.96" y="228.93"/><text fill="#2C3E50" font-family="sans-serif" font-size="12" lengthAdjust="spacing" textLength="138.8613" x="857.96" y="250.0687">userSessionsHandler.js</text></g><!--entity userListHandler.js--><g class="entity" data-entity="userListHandler.js" data-source-line="24" data-uid="ent0021" id="entity_userListHandler.js"><rect fill="#FFFFFF" height="33.9688" rx="2.5" ry="2.5" style="stroke:#2C3E50;stroke-width:0.5;" width="127.8008" x="1041.49" y="228.93"/><text fill="#2C3E50" font-family="sans-serif" font-size="12" lengthAdjust="spacing" textLength="107.8008" x="1051.49" y="250.0687">userListHandler.js</text></g><!--entity Student Portal--><g class="entity" data-entity="Student Portal" data-source-line="26" data-uid="ent0023" id="entity_Student Portal"><rect fill="#FFFFFF" height="33.9688" rx="2.5" ry="2.5" style="stroke:#2C3E50;stroke-width:0.5;" width="105.957" x="20.41" y="339.9"/><text fill="#2C3E50" font-family="sans-serif" font-size="12" lengthAdjust="spacing" textLength="85.957" x="30.41" y="361.0387">Student Portal</text></g><!--entity cheerio--><g class="entity" data-entity="cheerio" data-source-line="27" data-uid="ent0025" id="entity_cheerio"><rect fill="#FFFFFF" height="33.9688" rx="2.5" ry="2.5" style="stroke:#2C3E50;stroke-width:0.5;" width="64.5781" x="202.1" y="339.9"/><text fill="#2C3E50" font-family="sans-serif" font-size="12" lengthAdjust="spacing" textLength="44.5781" x="212.1" y="361.0387">cheerio</text></g><!--entity Twilio API--><g class="entity" data-entity="Twilio API" data-source-line="28" data-uid="ent0027" id="entity_Twilio API"><rect fill="#FFFFFF" height="33.9688" rx="2.5" ry="2.5" style="stroke:#2C3E50;stroke-width:0.5;" width="77.2871" x="686.75" y="339.9"/><text fill="#2C3E50" font-family="sans-serif" font-size="12" lengthAdjust="spacing" textLength="57.2871" x="696.75" y="361.0387">Twilio API</text></g><!--entity MongoDB--><g class="entity" data-entity="MongoDB" data-source-line="30" data-uid="ent0029" id="entity_MongoDB"><rect fill="#FFFFFF" height="33.9688" rx="2.5" ry="2.5" style="stroke:#2C3E50;stroke-width:0.5;" width="77.7324" x="1151.52" y="339.9"/><text fill="#2C3E50" font-family="sans-serif" font-size="12" lengthAdjust="spacing" textLength="57.7324" x="1161.52" y="361.0387">MongoDB</text></g><!--entity userSchema.js--><g class="entity" data-entity="userSchema.js" data-source-line="32" data-uid="ent0032" id="entity_userSchema.js"><rect fill="#FFFFFF" height="33.9688" rx="2.5" ry="2.5" style="stroke:#2C3E50;stroke-width:0.5;" width="107.8203" x="1204.48" y="228.93"/><text fill="#2C3E50" font-family="sans-serif" font-size="12" lengthAdjust="spacing" textLength="87.8203" x="1214.48" y="250.0687">userSchema.js</text></g><!--entity userSessionSchema.js--><g class="entity" data-entity="userSessionSchema.js" data-source-line="33" data-uid="ent0034" id="entity_userSessionSchema.js"><rect fill="#FFFFFF" height="33.9688" rx="2.5" ry="2.5" style="stroke:#2C3E50;stroke-width:0.5;" width="153.6055" x="1347.59" y="228.93"/><text fill="#2C3E50" font-family="sans-serif" font-size="12" lengthAdjust="spacing" textLength="133.6055" x="1357.59" y="250.0687">userSessionSchema.js</text></g><!--link server.js to Rate Limiter--><g class="link" data-entity-1="server.js" data-entity-2="Rate Limiter" data-source-line="14" data-uid="lnk4" id="link_server.js_Rate Limiter"><path d="M367.6,40.79 C351.93,48.63 333.87,58.99 319.39,70.96 C303,84.52 291.4195,98.9078 281.7795,112.5678" fill="none" id="server.js-to-Rate Limiter" style="stroke:#181818;stroke-width:1;"/><polygon fill="#181818" points="278.32,117.47,286.7774,112.423,281.2029,113.3848,280.2412,107.8103,278.32,117.47" style="stroke:#181818;stroke-width:1;"/><text fill="#000000" font-family="sans-serif" font-size="13" lengthAdjust="spacing" textLength="74.8833" x="320.39" y="84.0269">Middleware</text></g><!--link server.js to Validate Fields--><g class="link" data-entity-1="server.js" data-entity-2="Validate Fields" data-source-line="15" data-uid="lnk6" id="link_server.js_Validate Fields"><path d="M403.39,41.06 C403.39,61.66 403.39,91.17 403.39,111.8" fill="none" id="server.js-to-Validate Fields" style="stroke:#181818;stroke-width:1;"/><polygon fill="#181818" points="403.39,117.8,407.39,108.8,403.39,112.8,399.39,108.8,403.39,117.8" style="stroke:#181818;stroke-width:1;"/><text fill="#000000" font-family="sans-serif" font-size="13" lengthAdjust="spacing" textLength="74.8833" x="404.39" y="84.0269">Middleware</text></g><!--link server.js to checkForGrades.js--><g class="link" data-entity-1="server.js" data-entity-2="checkForGrades.js" data-source-line="16" data-uid="lnk8" id="link_server.js_checkForGrades.js"><path d="M437.57,41.4 C453.26,49.5 471.79,59.9 487.39,70.96 C507.26,85.05 523.4377,99.8672 537.0677,113.3072" fill="none" id="server.js-to-checkForGrades.js" style="stroke:#181818;stroke-width:1;"/><polygon fill="#181818" points="541.34,117.52,537.74,108.3527,537.7797,114.0094,532.123,114.0491,541.34,117.52" style="stroke:#181818;stroke-width:1;"/><text fill="#000000" font-family="sans-serif" font-size="13" lengthAdjust="spacing" textLength="31.04" x="509.39" y="84.0269">Calls</text></g><!--link checkForGrades.js to requestsHandler.js--><g class="link" data-entity-1="checkForGrades.js" data-entity-2="requestsHandler.js" data-source-line="18" data-uid="lnk10" id="link_checkForGrades.js_requestsHandler.js"><path d="M491.77,149.02 C485.9,150.06 480.04,151.05 474.39,151.93 C364.7,169.11 333.81,153.88 226.39,181.93 C183.31,193.18 141.7186,211.3025 111.3386,225.8925" fill="none" id="checkForGrades.js-to-requestsHandler.js" style="stroke:#181818;stroke-width:1;"/><polygon fill="#181818" points="105.93,228.49,115.7746,228.1995,110.4372,226.3254,112.3113,220.988,105.93,228.49" style="stroke:#181818;stroke-width:1;"/><text fill="#000000" font-family="sans-serif" font-size="13" lengthAdjust="spacing" textLength="76.2671" x="227.39" y="194.9969">Fetch HTML</text></g><!--link checkForGrades.js to htmlProcessor.js--><g class="link" data-entity-1="checkForGrades.js" data-entity-2="htmlProcessor.js" data-source-line="19" data-uid="lnk12" id="link_checkForGrades.js_htmlProcessor.js"><path d="M491.71,149.33 C435.29,160.98 360.94,176.8 347.39,181.93 C315.25,194.1 286.2244,210.9868 263.9944,225.2068" fill="none" id="checkForGrades.js-to-htmlProcessor.js" style="stroke:#181818;stroke-width:1;"/><polygon fill="#181818" points="258.94,228.44,268.677,226.9598,263.152,225.7457,264.3661,220.2207,258.94,228.44" style="stroke:#181818;stroke-width:1;"/><text fill="#000000" font-family="sans-serif" font-size="13" lengthAdjust="spacing" textLength="76.229" x="348.39" y="194.9969">Parse HTML</text></g><!--link checkForGrades.js to extractGradesData.js--><g class="link" data-entity-1="checkForGrades.js" data-entity-2="extractGradesData.js" data-source-line="20" data-uid="lnk14" id="link_checkForGrades.js_extractGradesData.js"><path d="M504.65,152.4 C486.34,159.66 466.41,169.43 450.39,181.93 C433.92,194.79 423.2057,209.4585 414.6857,223.4185" fill="none" id="checkForGrades.js-to-extractGradesData.js" style="stroke:#181818;stroke-width:1;"/><polygon fill="#181818" points="411.56,228.54,419.6629,222.9416,414.1648,224.2721,412.8343,218.7739,411.56,228.54" style="stroke:#181818;stroke-width:1;"/><text fill="#000000" font-family="sans-serif" font-size="13" lengthAdjust="spacing" textLength="97.1001" x="451.39" y="194.9969">Extract Grades</text></g><!--link checkForGrades.js to validators.js--><g class="link" data-entity-1="checkForGrades.js" data-entity-2="validators.js" data-source-line="21" data-uid="lnk16" id="link_checkForGrades.js_validators.js"><path d="M557.39,152.03 C557.39,172.63 557.39,202.14 557.39,222.77" fill="none" id="checkForGrades.js-to-validators.js" style="stroke:#181818;stroke-width:1;"/><polygon fill="#181818" points="557.39,228.77,561.39,219.77,557.39,223.77,553.39,219.77,557.39,228.77" style="stroke:#181818;stroke-width:1;"/><text fill="#000000" font-family="sans-serif" font-size="13" lengthAdjust="spacing" textLength="89.5845" x="558.39" y="194.9969">Validate Page</text></g><!--link checkForGrades.js to messageSenderService.js--><g class="link" data-entity-1="checkForGrades.js" data-entity-2="messageSenderService.js" data-source-line="22" data-uid="lnk18" id="link_checkForGrades.js_messageSenderService.js"><path d="M599.84,152.27 C617.94,160.08 638.88,170.28 656.39,181.93 C676.78,195.5 692.9456,210.6702 706.2056,224.3602" fill="none" id="checkForGrades.js-to-messageSenderService.js" style="stroke:#181818;stroke-width:1;"/><polygon fill="#181818" points="710.38,228.67,706.9916,219.4224,706.9013,225.0785,701.2452,224.9883,710.38,228.67" style="stroke:#181818;stroke-width:1;"/><text fill="#000000" font-family="sans-serif" font-size="13" lengthAdjust="spacing" textLength="72.4204" x="678.39" y="194.9969">Notify User</text></g><!--link checkForGrades.js to userSessionsHandler.js--><g class="link" data-entity-1="checkForGrades.js" data-entity-2="userSessionsHandler.js" data-source-line="23" data-uid="lnk20" id="link_checkForGrades.js_userSessionsHandler.js"><path d="M623.02,148.55 C662.82,156.77 714.43,168.45 759.39,181.93 C804.3,195.39 848.9113,212.5416 882.6313,226.2416" fill="none" id="checkForGrades.js-to-userSessionsHandler.js" style="stroke:#181818;stroke-width:1;"/><polygon fill="#181818" points="888.19,228.5,881.3575,221.4065,883.5577,226.618,878.3463,228.8182,888.19,228.5" style="stroke:#181818;stroke-width:1;"/><text fill="#000000" font-family="sans-serif" font-size="13" lengthAdjust="spacing" textLength="133.0405" x="812.39" y="194.9969">Read/Write Sessions</text></g><!--link checkForGrades.js to userListHandler.js--><g class="link" data-entity-1="checkForGrades.js" data-entity-2="userListHandler.js" data-source-line="24" data-uid="lnk22" id="link_checkForGrades.js_userListHandler.js"><path d="M623.06,137.95 C702.64,141.65 840.26,152.15 954.39,181.93 C997.13,193.08 1038.2695,211.2951 1068.2195,225.9351" fill="none" id="checkForGrades.js-to-userListHandler.js" style="stroke:#181818;stroke-width:1;"/><polygon fill="#181818" points="1073.61,228.57,1067.2809,221.024,1069.1179,226.3742,1063.7677,228.2112,1073.61,228.57" style="stroke:#181818;stroke-width:1;"/><text fill="#000000" font-family="sans-serif" font-size="13" lengthAdjust="spacing" textLength="92.1743" x="1006.39" y="194.9969">Manage Users</text></g><!--link requestsHandler.js to Student Portal--><g class="link" data-entity-1="requestsHandler.js" data-entity-2="Student Portal" data-source-line="26" data-uid="lnk24" id="link_requestsHandler.js_Student Portal"><path d="M73.39,263 C73.39,283.6 73.39,313.11 73.39,333.74" fill="none" id="requestsHandler.js-to-Student Portal" style="stroke:#181818;stroke-width:1;"/><polygon fill="#181818" points="73.39,339.74,77.39,330.74,73.39,334.74,69.39,330.74,73.39,339.74" style="stroke:#181818;stroke-width:1;"/><text fill="#000000" font-family="sans-serif" font-size="13" lengthAdjust="spacing" textLength="76.2671" x="74.39" y="305.9669">Fetch HTML</text></g><!--link htmlProcessor.js to cheerio--><g class="link" data-entity-1="htmlProcessor.js" data-entity-2="cheerio" data-source-line="27" data-uid="lnk26" id="link_htmlProcessor.js_cheerio"><path d="M234.39,263 C234.39,283.6 234.39,313.11 234.39,333.74" fill="none" id="htmlProcessor.js-to-cheerio" style="stroke:#181818;stroke-width:1;"/><polygon fill="#181818" points="234.39,339.74,238.39,330.74,234.39,334.74,230.39,330.74,234.39,339.74" style="stroke:#181818;stroke-width:1;"/><text fill="#000000" font-family="sans-serif" font-size="13" lengthAdjust="spacing" textLength="76.229" x="235.39" y="305.9669">Parse HTML</text></g><!--link messageSenderService.js to Twilio API--><g class="link" data-entity-1="messageSenderService.js" data-entity-2="Twilio API" data-source-line="28" data-uid="lnk28" id="link_messageSenderService.js_Twilio API"><path d="M725.39,263 C725.39,283.6 725.39,313.11 725.39,333.74" fill="none" id="messageSenderService.js-to-Twilio API" style="stroke:#181818;stroke-width:1;"/><polygon fill="#181818" points="725.39,339.74,729.39,330.74,725.39,334.74,721.39,330.74,725.39,339.74" style="stroke:#181818;stroke-width:1;"/><text fill="#000000" font-family="sans-serif" font-size="13" lengthAdjust="spacing" textLength="118.2378" x="726.39" y="305.9669">Send Notifications</text></g><!--link userSessionsHandler.js to MongoDB--><g class="link" data-entity-1="userSessionsHandler.js" data-entity-2="MongoDB" data-source-line="30" data-uid="lnk30" id="link_userSessionsHandler.js_MongoDB"><path d="M933.18,263.26 C939.2,277.81 950.04,298.49 966.39,309.9 C995.77,330.41 1089.123,344.1433 1145.143,350.8833" fill="none" id="userSessionsHandler.js-to-MongoDB" style="stroke:#181818;stroke-width:1;"/><polygon fill="#181818" points="1151.1,351.6,1142.6423,346.5536,1146.1358,351.0027,1141.6866,354.4963,1151.1,351.6" style="stroke:#181818;stroke-width:1;"/><text fill="#000000" font-family="sans-serif" font-size="13" lengthAdjust="spacing" textLength="133.0405" x="967.39" y="305.9669">Read/Write Sessions</text></g><!--link userListHandler.js to MongoDB--><g class="link" data-entity-1="userListHandler.js" data-entity-2="MongoDB" data-source-line="31" data-uid="lnk31" id="link_userListHandler.js_MongoDB"><path d="M1105.02,263.27 C1105.48,276.85 1107.98,296.11 1117.39,309.9 C1125.91,322.4 1133.8525,329.2272 1146.6725,336.5072" fill="none" id="userListHandler.js-to-MongoDB" style="stroke:#181818;stroke-width:1;"/><polygon fill="#181818" points="1151.89,339.47,1146.039,331.5475,1147.5421,337.001,1142.0886,338.5041,1151.89,339.47" style="stroke:#181818;stroke-width:1;"/><text fill="#000000" font-family="sans-serif" font-size="13" lengthAdjust="spacing" textLength="92.1743" x="1118.39" y="305.9669">Manage Users</text></g><!--link userSchema.js to MongoDB--><g class="link" data-entity-1="userSchema.js" data-entity-2="MongoDB" data-source-line="32" data-uid="lnk33" id="link_userSchema.js_MongoDB"><path d="M1248.36,263 C1235.5,283.6 1216.5158,314.0194 1203.6458,334.6494" fill="none" id="userSchema.js-to-MongoDB" style="stroke:#181818;stroke-width:1;"/><polygon fill="#181818" points="1200.47,339.74,1208.6274,334.2213,1203.1165,335.4978,1201.8399,329.9869,1200.47,339.74" style="stroke:#181818;stroke-width:1;"/><text fill="#000000" font-family="sans-serif" font-size="13" lengthAdjust="spacing" textLength="98.833" x="1229.39" y="305.9669">Define Schema</text></g><!--link userSessionSchema.js to MongoDB--><g class="link" data-entity-1="userSessionSchema.js" data-entity-2="MongoDB" data-source-line="33" data-uid="lnk35" id="link_userSessionSchema.js_MongoDB"><path d="M1405.27,263.34 C1388.17,277.33 1361.94,297.14 1336.39,309.9 C1301.92,327.12 1265.4791,338.118 1235.3091,345.698" fill="none" id="userSessionSchema.js-to-MongoDB" style="stroke:#181818;stroke-width:1;"/><polygon fill="#181818" points="1229.49,347.16,1239.1934,348.8464,1234.3393,345.9416,1237.244,341.0875,1229.49,347.16" style="stroke:#181818;stroke-width:1;"/><text fill="#000000" font-family="sans-serif" font-size="13" lengthAdjust="spacing" textLength="98.833" x="1365.39" y="305.9669">Define Schema</text></g><!--SRC=[ZP9FSzCm4CNl_XGxmu5J-LE60pqmGnlICfCmdhZ0eTF38cri4LaAkqf3OVhTaUIaRHAROjzsts-rUa-oC6w9Z2qetowz8nUgS6i9c5H0Lrigv5uY3Mg_Dgw6ELfvtFcEQb6pNpbzvgrdU3P_b_wYU0xdv8ZHFim7IGSyWXywVmg8t-d1iFnrFS-QU5C_Lc_exQjS7tiN-gkL-Ktm-hYuIylCo68mtabZbb9S2V4DyOiVSWr7H-_XQeQ1O69Q4uYluGIcHcjBQsGwr7v5QtJIZmrPBK_9LKDgCVPypgX9Slq4pj1QAOg-PeQOVgv8WboWYuDvGuqfg0OkBgUJOR89hItPAnBnMwv45dg2er-1KOMkFCA06_PZLuUkCSpVTAvutbxntgOIQnhcshXe55JaOhnLzCuesapux8EPtyANwEWmlvA4YQHiTzsQ4UgNtpX62bl1lyTCZ8JT4LDqSRUyGKghBvLCLs6bqpCkFGUq-r4THh9z6CJ6xmSqQ4Y6BjV66WyVoa-9IwBE9gEwvnst778ayrFlQZyw7VIdpuTzSCULxhXubnPxnIEQ6nTFo8gTvVuN-Wi0]--></g></svg>