<svg xmlns="http://www.w3.org/2000/svg" xmlns:xlink="http://www.w3.org/1999/xlink" contentStyleType="text/css" data-diagram-type="DESCRIPTION" height="461px" preserveAspectRatio="none" style="width:1637px;height:461px;background:#F9F9F9;" version="1.1" viewBox="0 0 1637 461" width="1637px" zoomAndPan="magnify"><defs/><g><rect fill="#F9F9F9" height="461" style="stroke:none;stroke-width:1;" width="1637" x="0" y="0"/><!--cluster Grades Checker API--><g class="cluster" data-entity="Grades Checker API" data-source-line="13" data-uid="ent0002" id="cluster_Grades Checker API"><path d="M8.5,6 L164.9902,6 A3.75,3.75 0 0 1 167.4902,8.5 L174.4902,28.2969 L1627.5,28.2969 A2.5,2.5 0 0 1 1630,30.7969 L1630,452.37 A2.5,2.5 0 0 1 1627.5,454.87 L8.5,454.87 A2.5,2.5 0 0 1 6,452.37 L6,8.5 A2.5,2.5 0 0 1 8.5,6" fill="none" style="stroke:#000000;stroke-width:1.5;"/><line style="stroke:#000000;stroke-width:1.5;" x1="6" x2="174.4902" y1="28.2969" y2="28.2969"/><text fill="#000000" font-family="sans-serif" font-size="14" font-weight="bold" lengthAdjust="spacing" textLength="155.4902" x="10" y="20.9951">Grades Checker API</text></g><!--cluster Express Server--><g class="cluster" data-entity="Express Server" data-source-line="15" data-uid="ent0003" id="cluster_Express Server"><path d="M32.5,49 L152.0625,49 A3.75,3.75 0 0 1 154.5625,51.5 L161.5625,71.2969 L432.5,71.2969 A2.5,2.5 0 0 1 435,73.7969 L435,225.43 A2.5,2.5 0 0 1 432.5,227.93 L32.5,227.93 A2.5,2.5 0 0 1 30,225.43 L30,51.5 A2.5,2.5 0 0 1 32.5,49" fill="none" style="stroke:#000000;stroke-width:1.5;"/><line style="stroke:#000000;stroke-width:1.5;" x1="30" x2="161.5625" y1="71.2969" y2="71.2969"/><text fill="#000000" font-family="sans-serif" font-size="14" font-weight="bold" lengthAdjust="spacing" textLength="118.5625" x="34" y="63.9951">Express Server</text></g><!--cluster Helpers--><g class="cluster" data-entity="Helpers" data-source-line="21" data-uid="ent0007" id="cluster_Helpers"><path d="M461.5,49 L523.2646,49 A3.75,3.75 0 0 1 525.7646,51.5 L532.7646,71.2969 L1122.5,71.2969 A2.5,2.5 0 0 1 1125,73.7969 L1125,334.4 A2.5,2.5 0 0 1 1122.5,336.9 L461.5,336.9 A2.5,2.5 0 0 1 459,334.4 L459,51.5 A2.5,2.5 0 0 1 461.5,49" fill="none" style="stroke:#000000;stroke-width:1.5;"/><line style="stroke:#000000;stroke-width:1.5;" x1="459" x2="532.7646" y1="71.2969" y2="71.2969"/><text fill="#000000" font-family="sans-serif" font-size="14" font-weight="bold" lengthAdjust="spacing" textLength="60.7646" x="463" y="63.9951">Helpers</text></g><!--cluster Database--><g class="cluster" data-entity="Database" data-source-line="32" data-uid="ent0016" id="cluster_Database"><path d="M60.5,251.93 L136.0049,251.93 A3.75,3.75 0 0 1 138.5049,254.43 L145.5049,274.2269 L432.5,274.2269 A2.5,2.5 0 0 1 435,276.7269 L435,428.37 A2.5,2.5 0 0 1 432.5,430.87 L60.5,430.87 A2.5,2.5 0 0 1 58,428.37 L58,254.43 A2.5,2.5 0 0 1 60.5,251.93" fill="none" style="stroke:#000000;stroke-width:1.5;"/><line style="stroke:#000000;stroke-width:1.5;" x1="58" x2="145.5049" y1="274.2269" y2="274.2269"/><text fill="#000000" font-family="sans-serif" font-size="14" font-weight="bold" lengthAdjust="spacing" textLength="74.5049" x="62" y="266.9251">Database</text></g><!--cluster External Services--><g class="cluster" data-entity="External Services" data-source-line="38" data-uid="ent0020" id="cluster_External Services"><path d="M1151.5,49 L1289.8066,49 A3.75,3.75 0 0 1 1292.3066,51.5 L1299.3066,71.2969 L1603.5,71.2969 A2.5,2.5 0 0 1 1606,73.7969 L1606,131.46 A2.5,2.5 0 0 1 1603.5,133.96 L1151.5,133.96 A2.5,2.5 0 0 1 1149,131.46 L1149,51.5 A2.5,2.5 0 0 1 1151.5,49" fill="none" style="stroke:#000000;stroke-width:1.5;"/><line style="stroke:#000000;stroke-width:1.5;" x1="1149" x2="1299.3066" y1="71.2969" y2="71.2969"/><text fill="#000000" font-family="sans-serif" font-size="14" font-weight="bold" lengthAdjust="spacing" textLength="137.3066" x="1153" y="63.9951">External Services</text></g><!--entity server.js <<Entry Point>>--><g class="entity" data-entity="server.js &lt;&lt;Entry Point&gt;&gt;" data-source-line="16" data-uid="ent0004" id="entity_server.js &lt;&lt;Entry Point&gt;&gt;"><rect fill="#DFF0D8" height="33.9688" rx="2.5" ry="2.5" style="stroke:#2C3E50;stroke-width:0.5;" width="155.8496" x="46.08" y="84"/><text fill="#2C3E50" font-family="sans-serif" font-size="12" lengthAdjust="spacing" textLength="135.8496" x="56.08" y="105.1387">server.js &#171;Entry Point&#187;</text></g><!--entity Rate Limiter <<Middleware>>--><g class="entity" data-entity="Rate Limiter &lt;&lt;Middleware&gt;&gt;" data-source-line="17" data-uid="ent0005" id="entity_Rate Limiter &lt;&lt;Middleware&gt;&gt;"><rect fill="#D9EDF7" height="33.9688" rx="2.5" ry="2.5" style="stroke:#2C3E50;stroke-width:0.5;" width="181.2793" x="237.36" y="84"/><text fill="#2C3E50" font-family="sans-serif" font-size="12" lengthAdjust="spacing" textLength="161.2793" x="247.36" y="105.1387">Rate Limiter &#171;Middleware&#187;</text></g><!--entity Validate Fields <<Middleware>>--><g class="entity" data-entity="Validate Fields &lt;&lt;Middleware&gt;&gt;" data-source-line="18" data-uid="ent0006" id="entity_Validate Fields &lt;&lt;Middleware&gt;&gt;"><rect fill="#D9EDF7" height="33.9688" rx="2.5" ry="2.5" style="stroke:#2C3E50;stroke-width:0.5;" width="195.5469" x="46.23" y="177.96"/><text fill="#2C3E50" font-family="sans-serif" font-size="12" lengthAdjust="spacing" textLength="175.5469" x="56.23" y="199.0987">Validate Fields &#171;Middleware&#187;</text></g><!--entity checkForGrades.js <<Logic>>--><g class="entity" data-entity="checkForGrades.js &lt;&lt;Logic&gt;&gt;" data-source-line="22" data-uid="ent0008" id="entity_checkForGrades.js &lt;&lt;Logic&gt;&gt;"><rect fill="#FCF8E3" height="33.9688" rx="2.5" ry="2.5" style="stroke:#2C3E50;stroke-width:0.5;" width="180.623" x="474.69" y="84"/><text fill="#2C3E50" font-family="sans-serif" font-size="12" lengthAdjust="spacing" textLength="160.623" x="484.69" y="105.1387">checkForGrades.js &#171;Logic&#187;</text></g><!--entity extractGradesData.js <<Logic>>--><g class="entity" data-entity="extractGradesData.js &lt;&lt;Logic&gt;&gt;" data-source-line="23" data-uid="ent0009" id="entity_extractGradesData.js &lt;&lt;Logic&gt;&gt;"><rect fill="#FCF8E3" height="33.9688" rx="2.5" ry="2.5" style="stroke:#2C3E50;stroke-width:0.5;" width="197.7441" x="690.13" y="84"/><text fill="#2C3E50" font-family="sans-serif" font-size="12" lengthAdjust="spacing" textLength="177.7441" x="700.13" y="105.1387">extractGradesData.js &#171;Logic&#187;</text></g><!--entity requestsHandler.js <<Utility>>--><g class="entity" data-entity="requestsHandler.js &lt;&lt;Utility&gt;&gt;" data-source-line="24" data-uid="ent0010" id="entity_requestsHandler.js &lt;&lt;Utility&gt;&gt;"><rect fill="#F5F5F5" height="33.9688" rx="2.5" ry="2.5" style="stroke:#2C3E50;stroke-width:0.5;" width="186.5762" x="922.71" y="84"/><text fill="#2C3E50" font-family="sans-serif" font-size="12" lengthAdjust="spacing" textLength="166.5762" x="932.71" y="105.1387">requestsHandler.js &#171;Utility&#187;</text></g><!--entity htmlProcessor.js <<Utility>>--><g class="entity" data-entity="htmlProcessor.js &lt;&lt;Utility&gt;&gt;" data-source-line="25" data-uid="ent0011" id="entity_htmlProcessor.js &lt;&lt;Utility&gt;&gt;"><rect fill="#F5F5F5" height="33.9688" rx="2.5" ry="2.5" style="stroke:#2C3E50;stroke-width:0.5;" width="172.8008" x="479.6" y="177.96"/><text fill="#2C3E50" font-family="sans-serif" font-size="12" lengthAdjust="spacing" textLength="152.8008" x="489.6" y="199.0987">htmlProcessor.js &#171;Utility&#187;</text></g><!--entity validators.js <<Utility>>--><g class="entity" data-entity="validators.js &lt;&lt;Utility&gt;&gt;" data-source-line="26" data-uid="ent0012" id="entity_validators.js &lt;&lt;Utility&gt;&gt;"><rect fill="#F5F5F5" height="33.9688" rx="2.5" ry="2.5" style="stroke:#2C3E50;stroke-width:0.5;" width="146.5215" x="687.74" y="177.96"/><text fill="#2C3E50" font-family="sans-serif" font-size="12" lengthAdjust="spacing" textLength="126.5215" x="697.74" y="199.0987">validators.js &#171;Utility&#187;</text></g><!--entity messageSenderService.js <<Service>>--><g class="entity" data-entity="messageSenderService.js &lt;&lt;Service&gt;&gt;" data-source-line="27" data-uid="ent0013" id="entity_messageSenderService.js &lt;&lt;Service&gt;&gt;"><rect fill="#F2DEDE" height="33.9688" rx="2.5" ry="2.5" style="stroke:#2C3E50;stroke-width:0.5;" width="237.0664" x="869.47" y="177.96"/><text fill="#2C3E50" font-family="sans-serif" font-size="12" lengthAdjust="spacing" textLength="217.0664" x="879.47" y="199.0987">messageSenderService.js &#171;Service&#187;</text></g><!--entity userSessionsHandler.js <<Database Handler>>--><g class="entity" data-entity="userSessionsHandler.js &lt;&lt;Database Handler&gt;&gt;" data-source-line="28" data-uid="ent0014" id="entity_userSessionsHandler.js &lt;&lt;Database Handler&gt;&gt;"><rect fill="#EEEEEE" height="33.9688" rx="2.5" ry="2.5" style="stroke:#2C3E50;stroke-width:0.5;" width="285.6816" x="475.16" y="286.93"/><text fill="#2C3E50" font-family="sans-serif" font-size="12" lengthAdjust="spacing" textLength="265.6816" x="485.16" y="308.0687">userSessionsHandler.js &#171;Database Handler&#187;</text></g><!--entity userListHandler.js <<Database Handler>>--><g class="entity" data-entity="userListHandler.js &lt;&lt;Database Handler&gt;&gt;" data-source-line="29" data-uid="ent0015" id="entity_userListHandler.js &lt;&lt;Database Handler&gt;&gt;"><rect fill="#EEEEEE" height="33.9688" rx="2.5" ry="2.5" style="stroke:#2C3E50;stroke-width:0.5;" width="254.6211" x="795.69" y="286.93"/><text fill="#2C3E50" font-family="sans-serif" font-size="12" lengthAdjust="spacing" textLength="234.6211" x="805.69" y="308.0687">userListHandler.js &#171;Database Handler&#187;</text></g><!--entity MongoDB <<NoSQL>>--><g class="entity" data-entity="MongoDB &lt;&lt;NoSQL&gt;&gt;" data-source-line="33" data-uid="ent0017" id="entity_MongoDB &lt;&lt;NoSQL&gt;&gt;"><rect fill="#E0F7FA" height="33.9688" rx="2.5" ry="2.5" style="stroke:#2C3E50;stroke-width:0.5;" width="136.2969" x="73.85" y="286.93"/><text fill="#2C3E50" font-family="sans-serif" font-size="12" lengthAdjust="spacing" textLength="116.2969" x="83.85" y="308.0687">MongoDB &#171;NoSQL&#187;</text></g><!--entity userSchema.js <<Schema>>--><g class="entity" data-entity="userSchema.js &lt;&lt;Schema&gt;&gt;" data-source-line="34" data-uid="ent0018" id="entity_userSchema.js &lt;&lt;Schema&gt;&gt;"><rect fill="#E1F5FE" height="33.9688" rx="2.5" ry="2.5" style="stroke:#2C3E50;stroke-width:0.5;" width="174.5645" x="244.72" y="286.93"/><text fill="#2C3E50" font-family="sans-serif" font-size="12" lengthAdjust="spacing" textLength="154.5645" x="254.72" y="308.0687">userSchema.js &#171;Schema&#187;</text></g><!--entity userSessionSchema.js <<Schema>>--><g class="entity" data-entity="userSessionSchema.js &lt;&lt;Schema&gt;&gt;" data-source-line="35" data-uid="ent0019" id="entity_userSessionSchema.js &lt;&lt;Schema&gt;&gt;"><rect fill="#E1F5FE" height="33.9688" rx="2.5" ry="2.5" style="stroke:#2C3E50;stroke-width:0.5;" width="220.3496" x="73.83" y="380.9"/><text fill="#2C3E50" font-family="sans-serif" font-size="12" lengthAdjust="spacing" textLength="200.3496" x="83.83" y="402.0387">userSessionSchema.js &#171;Schema&#187;</text></g><!--entity Twilio API <<SMS/WhatsApp>>--><g class="entity" data-entity="Twilio API &lt;&lt;SMS/WhatsApp&gt;&gt;" data-source-line="39" data-uid="ent0021" id="entity_Twilio API &lt;&lt;SMS/WhatsApp&gt;&gt;"><rect fill="#FFE0B2" height="33.9688" rx="2.5" ry="2.5" style="stroke:#2C3E50;stroke-width:0.5;" width="186.6406" x="1164.68" y="84"/><text fill="#2C3E50" font-family="sans-serif" font-size="12" lengthAdjust="spacing" textLength="166.6406" x="1174.68" y="105.1387">Twilio API &#171;SMS/WhatsApp&#187;</text></g><!--entity Student Portal <<HTML Source>>--><g class="entity" data-entity="Student Portal &lt;&lt;HTML Source&gt;&gt;" data-source-line="40" data-uid="ent0022" id="entity_Student Portal &lt;&lt;HTML Source&gt;&gt;"><rect fill="#FFF3E0" height="33.9688" rx="2.5" ry="2.5" style="stroke:#2C3E50;stroke-width:0.5;" width="203.1406" x="1386.43" y="84"/><text fill="#2C3E50" font-family="sans-serif" font-size="12" lengthAdjust="spacing" textLength="183.1406" x="1396.43" y="105.1387">Student Portal &#171;HTML Source&#187;</text></g><!--SRC=[bPHTRziW58Rl_IjGUh6xBKrKjPMiIlrACycPihdhBgPT43WuB9ZZ0MwQJldl0-CqRUUi2xwnWUSzdFSSR1TILzJGaZ0iAzIWNUvM2eW1vgWk52JsQOkTKuvBgGiYgBBFLsQKBGg3jUQNgD2G0t4QdYHvHsv0Ww5ggqzi2F0CtgxyJeWV5t-9DIEkeU5Wsla16y9HlvaVeNRTixby178uIDP98b1vcFHk3ELWoUKSsC9_dqy_zdpeXjXikNwe35XBSZ3tO7hjoSBOdlQxRHRV_xGaJQ-rCoioHQdTsTaFSi25wFEJBkeBTK0oMKhd0wNfH7AkO4aDHEuKk3ZkukweaZom8mcAst-YwvVPZ45LOEoED5ZmOOGcsXBJoR2Gh54LJ9p0i8k31sSeSn6xeex-FshWLmtMsJ7LFeFMmgzEAkbM4JqAJnSwTwMQ6cI-EhWNU1_zGsFteKeVXnQGW_PEXcwG32BVVaH-m8535r_RW5ahKR_CDXWsenP8EzleG3DswMJIkhqqNhN1PlkEFfYWBl3gmkj-mlnp5iNwubZGdOdvrYdRiiVt21rwDzzousrs_VfA-WkZ_P-aDNvNEzykVLqntEgWFCa_V9jJPy-hAbPAG7yswE9oL_FmCaNZV9Gq7TzECf9ZRJP55c88_VPewpy0]--></g></svg>